<?xml version="1.0" encoding="UTF-8"?> <svg xmlns="http://www.w3.org/2000/svg" width="1692" height="655" viewBox="0 0 1692 655" fill="none"> <path d="M297.333 62.8C285.867 64.1333 265.333 67.3333 255.067 69.4667L248 70.8V84.6667C248 106.267 252.267 144.8 254.533 143.333C256.4 142.267 301.733 136.133 315.2 135.2L328.267 134.267L327.6 130.133C322.533 101.733 320 85.0667 319.333 74.2667L318.4 61.3333L312.8 61.4667C309.867 61.6 302.8 62.2667 297.333 62.8Z" fill="#575555"></path> <path d="M425.333 70.5334C425.333 80.9334 422.267 106.267 419.333 121.2C416.533 135.067 416.4 134.667 423.733 134.667C431.067 134.667 457.333 137.733 477.067 140.933C484.533 142.133 490.933 142.8 491.333 142.533C493.867 139.867 497.467 80.9334 495.6 73.0668C494.8 69.8668 493.867 69.6001 476.4 66.8001C453.467 63.3334 436.933 61.3334 430.4 61.3334H425.333V70.5334Z" fill="#575555"></path> <path d="M143.733 105.6C121.6 116.933 103.067 128.8 102.133 132.667C99.6 142.933 100.267 198.133 102.933 200.8C103.333 201.2 107.867 198.8 112.8 195.6C124.267 188.4 144.4 177.6 156.267 172.533L165.2 168.8L164.267 160.667C163.733 156.267 163.333 139.867 163.333 124.267C163.333 108.8 163.2 96.0001 163.2 96.0001C163.067 96.0001 154.4 100.4 143.733 105.6Z" fill="#575555"></path> <path d="M586 121.2C586 134.133 585.467 150.4 584.933 157.6C583.867 170.133 583.867 170.4 586.8 171.333C596.4 174.4 630 192.4 639.6 199.467L643.733 202.667L644.8 192.267C646.133 179.333 645.867 139.333 644.267 134C643.467 131.067 640.4 128 632.4 122.666C622.533 115.866 597.2 101.866 589.333 98.9332L586 97.5998V121.2Z" fill="#575555"></path> <path d="M316 144.266C302.667 145.2 282.533 147.866 264.4 150.933C257.467 152 256 152.666 256 154.8C256 162.933 269.733 209.733 280 236.4C282.8 243.866 283.067 244 287.067 243.333C298.133 241.466 325.067 238.666 339.333 238C348.133 237.6 357.333 236.933 359.6 236.533L364 235.866L361.867 230.933C354 213.2 343.067 183.466 337.467 165.333C334 153.6 330.8 143.866 330.533 143.6C330.267 143.466 323.733 143.733 316 144.266Z" fill="#575555"></path> <path d="M412 154.533C408 169.467 397.6 200 389.467 219.867L383.067 235.6L405.867 236.667C418.4 237.2 436.8 238.4 446.667 239.333C456.533 240.4 464.8 241.067 464.933 240.933C466.4 239.333 482.4 187.867 485.467 174.8C490.8 151.733 490.933 152.667 481.733 150.8C472 148.933 434 144.267 423.2 143.733L414.933 143.2L412 154.533Z" fill="#575555"></path> <path d="M774.667 188V232H814H853.333V188V144H814H774.667V188Z" fill="#575555"></path> <path d="M927.2 149.6C924.933 152.8 911.067 172.267 896.267 192.933C881.467 213.467 869.333 230.8 869.333 231.2C869.333 231.6 888.4 232 911.867 232H954.267L987.467 189.867C1005.73 166.667 1021.2 146.8 1021.73 145.867C1022.67 144.267 1015.2 144 976.933 144H931.2L927.2 149.6Z" fill="#575555"></path> <path d="M1068 188V232H1107.33H1146.67V188V144H1107.33H1068V188Z" fill="#575555"></path> <path d="M1302.13 148.267C1300.27 158.8 1290.67 225.6 1290.67 228.667V232H1348.8H1406.93L1406 228.267C1405.6 226.267 1400 206.667 1393.6 184.667L1382 144.667L1342.53 144.267L1302.93 144L1302.13 148.267Z" fill="#575555"></path> <path d="M1472.8 145.067C1472.13 146.133 1448 230 1448 231.333C1448 231.733 1474.13 232 1506 232H1564V228.667C1564 225.733 1554.8 160.667 1552.67 148.267L1551.87 144H1512.67C1491.07 144 1473.2 144.533 1472.8 145.067Z" fill="#575555"></path> <path d="M351.333 246.267C334.8 246.933 293.333 251.2 288.4 252.667C287.333 253.067 288.8 257.867 292.933 267.333C300 283.733 321.467 323.867 323.2 324.4C325.067 324.8 343.733 293.733 356.8 268.667C362.933 256.8 368 246.667 368 246.267C368 245.733 366.4 245.467 364.4 245.6C362.267 245.733 356.533 246 351.333 246.267Z" fill="#575555"></path> <path d="M385.333 258.8C393.467 275.067 399.2 285.067 413.733 308.533L424.267 325.6L428.267 318.533C440.133 297.067 460 255.2 460 251.467C460 249.333 437.067 247.067 402.933 245.733L378.4 244.933L385.333 258.8Z" fill="#575555"></path> <path d="M465.467 262.933C459.2 278.133 446.933 303.466 438.667 318.4C434.933 325.333 432.133 331.2 432.4 331.6C432.8 331.866 443.2 333.333 455.6 334.8C474.667 336.933 501.467 341.066 511.467 343.333C513.867 343.866 515.6 341.066 526.267 318.933C538.4 293.733 548.933 268.533 547.867 267.333C545.6 265.2 493.733 254.133 478.533 252.666L470 251.733L465.467 262.933Z" fill="#575555"></path> <path d="M774.667 290V328H814H853.333V316C853.333 309.333 853.733 304 854.4 304C854.933 304 858.8 309.467 863.2 316L871.067 328H916.133C941.067 328 961.333 327.733 961.333 327.467C961.333 327.2 952.4 315.2 941.333 300.667C929.333 284.667 921.867 273.6 922.533 272.8C923.067 272 926.933 266.933 931.2 261.6L938.8 252H856.667H774.667V290Z" fill="#FF2C25"></path> <path d="M1068 290V328H1107.33H1146.67V290V252H1107.33H1068V290Z" fill="#FF2C25"></path> <path d="M1286.27 256.933C1284.53 267.2 1276 326 1276 326.933C1276 327.6 1292.67 328 1313.07 328H1350.13L1354 298C1356.13 281.467 1358.27 268 1358.93 268C1359.47 268 1360 268.667 1360 269.6C1360 270.533 1363.73 284 1368.27 299.6L1376.53 328H1427.47H1478.27L1486.8 298C1491.47 281.467 1495.73 268 1496.13 268C1496.8 268 1497.33 271.733 1502.13 309.6L1504.53 328H1541.6C1562 328 1578.67 327.6 1578.67 326.933C1578.67 326.4 1576.27 309.6 1573.33 289.6C1570.4 269.467 1568 252.8 1568 252.533C1568 252.267 1539.6 252 1504.93 252H1441.87L1435.47 274.267C1431.87 286.667 1428.53 297.6 1428 298.667C1426.8 300.667 1426.4 299.333 1417.73 268.933L1412.93 252H1350H1287.07L1286.27 256.933Z" fill="#FF2C25"></path> <path d="M269.333 255.6C253.733 258.267 204.667 270.933 202.8 272.8C201.733 273.867 214.533 303.733 226.267 327.333C231.733 338.267 236.4 347.467 236.533 347.6C236.667 347.733 241.867 346.667 248 345.333C261.733 342.133 296 336.533 308.267 335.2L317.333 334.4L311.2 323.467C303.733 310 285.733 274.133 280.933 262.933C277.333 254.4 277.067 254.267 269.333 255.6Z" fill="#575555"></path> <path d="M367.333 268.133C359.467 283.733 345.733 307.733 336.4 322.4L329.333 333.467L334.267 332.533C337.067 332 356.8 331.467 378.267 331.467C403.733 331.333 416.8 330.933 416.267 330C415.867 329.2 411.2 321.733 405.867 313.333C395.2 296.133 385.2 278.533 378.267 264.8L373.6 255.467L367.333 268.133Z" fill="#575555"></path> <path d="M555.867 274.266C551.2 286.666 539.867 312.533 532.4 327.733C527.6 337.466 523.867 345.6 524.133 345.866C524.4 346 531.333 347.866 539.333 350C551.2 352.933 579.067 361.866 589.467 366C591.2 366.666 593.333 363.066 599.733 348.933C608.133 330.4 614.667 314.933 618.8 302.933L621.2 296L613.467 292C599.2 284.933 562.667 270.666 558.4 270.666C557.733 270.666 556.667 272.266 555.867 274.266Z" fill="#575555"></path> <path d="M174.667 283.2C158.8 289.867 145.467 296.667 134.267 303.6C130.133 306.267 129.333 307.333 130.133 309.733C132.133 316.267 142.933 341.867 150.4 357.6L158.4 374.533L176.267 367.333C186.267 363.333 201.333 358 210.133 355.333C218.8 352.667 226.133 350.267 226.4 350C226.667 349.733 222.8 340.933 217.6 330.4C209.867 314.667 201.867 296.8 194.667 278.933C194 277.333 192.933 276 192.4 276.133C191.733 276.133 183.867 279.333 174.667 283.2Z" fill="#575555"></path> <path d="M349.333 340.933C331.733 341.6 332.267 340.933 340.533 353.867C349.333 367.6 371.6 398.267 373.467 399.467C374.267 399.867 375.733 399.2 376.667 397.867C384.4 387.6 401.067 363.867 407.2 354L414.8 342L411.067 341.2C407.333 340.267 368.133 340.133 349.333 340.933Z" fill="#575555"></path> <path d="M414.667 358.8C409.2 367.6 399.467 382 393.067 390.8C386.533 399.6 381.333 407.466 381.333 408.266C381.333 410.266 404.533 436.133 419.067 450.4L431.867 462.8L436.267 457.733C448.4 443.866 465.2 422.266 472.533 411.066L476.267 405.6L464.667 392.4C458.4 385.2 448.133 372.666 441.867 364.666C435.6 356.533 429.2 348.4 427.6 346.4L424.667 342.8L414.667 358.8Z" fill="#575555"></path> <path d="M320.933 345.6C319.867 348.4 299.067 375.733 288.8 387.733C283.6 393.866 277.867 400.666 276.133 402.8L272.933 406.666L279.2 415.733C287.733 428.133 314.933 461.733 316.933 462.4C317.867 462.666 324.4 456.933 331.6 449.733C344.4 436.666 368 410 368 408.533C368 408 363.467 401.6 357.867 394.133C352.267 386.8 342.267 372.4 335.6 362.4C328.8 352.266 322.933 344.133 322.533 344C322 344 321.333 344.8 320.933 345.6Z" fill="#575555"></path> <path d="M774.667 381.333V413.333H814H853.333V381.333V349.333H814H774.667V381.333Z" fill="#575555"></path> <path d="M904.267 376.933C914.533 392.266 924.133 406.666 925.6 408.933L928.267 413.333H976.8C1003.47 413.333 1025.33 412.933 1025.33 412.533C1025.33 412 1014.8 397.6 1001.73 380.533L978.267 349.333H931.867H885.6L904.267 376.933Z" fill="#575555"></path> <path d="M1068 381.333V413.333L1147.73 413.066L1227.33 412.666L1227.73 380.933L1228 349.333H1148H1068V381.333Z" fill="#575555"></path> <path d="M1268.27 379.6C1265.87 396.4 1264 410.8 1264 411.6C1264 412.933 1272.4 413.333 1301.33 413.333C1330.13 413.333 1338.93 412.933 1339.33 411.6C1339.6 410.8 1341.6 396.4 1343.6 379.6L1347.47 349.333H1310H1272.53L1268.27 379.6Z" fill="#575555"></path> <path d="M1383.33 350.933C1383.6 351.866 1386.4 361.333 1389.33 372C1392.4 382.666 1396.4 396.266 1398.13 402.266L1401.47 413.333H1427.33H1453.2L1455.87 404.266C1457.33 399.333 1461.2 385.733 1464.67 374C1468 362.266 1471.07 351.866 1471.33 350.933C1471.73 349.733 1462.4 349.333 1427.33 349.333C1392.27 349.333 1382.93 349.733 1383.33 350.933Z" fill="#575555"></path> <path d="M1511.33 380.933L1515.33 412.667L1553.07 413.067C1582.67 413.333 1590.67 413.067 1590.67 411.733C1590.8 410.8 1588.8 396.4 1586.4 379.6L1582.13 349.333H1544.67H1507.2L1511.33 380.933Z" fill="#575555"></path> <path d="M252.667 427.067C245.333 434.4 233.467 445.067 226.4 451.067C219.2 456.933 213.333 462.133 213.333 462.533C213.333 463.6 237.733 493.867 246.667 503.733L254 512L267.333 503.2C279.733 494.933 296.133 482.533 306.267 473.6L310.667 469.867L301.067 458.533C295.867 452.4 286.133 440.133 279.6 431.333C273.067 422.533 267.333 414.933 266.8 414.533C266.4 414.133 260 419.733 252.667 427.067Z" fill="#575555"></path> <path d="M473.333 425.6C468.533 432.267 458.8 444.667 451.733 453.2L438.8 468.667L442.4 471.733C455.733 483.2 491.6 508 494.8 508C497.067 508 534.667 461.867 534.667 459.067C534.667 458.533 531.2 455.333 527.067 452C517.733 444.8 502.133 431.067 491.467 420.933C487.2 416.667 483.333 413.333 482.8 413.467C482.4 413.467 478.133 418.933 473.333 425.6Z" fill="#575555"></path> <path d="M814.667 463.2C784 469.867 766.4 502 774 537.733C777.467 554.533 788.133 568.533 802.667 575.733C809.333 579.067 811.333 579.333 825.333 579.333C842.133 579.333 846.8 577.867 856.533 569.333C858.933 567.067 861.333 565.333 861.733 565.333C862.133 565.333 862.933 568 863.467 571.333L864.267 577.333H870.8H877.333V547.333V517.333H853.333H829.333V524.667V532H844.8H860.267L859.333 537.6C858 545.733 852.4 555.333 846.8 559.2C840.4 563.733 830 565.6 821.333 564C803.333 560.533 793.6 547.6 792.267 525.2C790.667 497.067 804.533 478.533 827.067 478.4C841.2 478.4 853.6 486 855.6 496.133C856.267 500 856.4 500 866.133 500H876L875.2 496.267C873.6 488.8 867.733 478.533 862.4 474.133C849.6 463.2 832.533 459.2 814.667 463.2Z" fill="#575555"></path> <path d="M1173.33 463.333C1154.93 468.533 1142.53 481.467 1136.67 501.867C1133.47 512.933 1134.4 536.4 1138.53 546.533C1147.47 568.533 1164.53 580 1188.67 580C1214.27 580 1232.93 566.267 1240.27 542.267C1242.53 534.667 1242.93 530.667 1242.4 517.6C1241.87 503.333 1241.47 501.2 1237.33 492.267C1231.73 480 1221.07 469.6 1209.73 465.333C1199.6 461.467 1183.2 460.667 1173.33 463.333ZM1204 481.333C1210.8 484.8 1217.47 492.933 1220.67 501.6C1224.4 511.733 1224.13 531.2 1220.13 541.467C1214.93 554.933 1202.93 563.867 1190 564C1180.4 564 1174.67 562 1168.13 556.533C1149.87 540.933 1148.8 503.867 1166.13 487.067C1176.13 477.333 1191.6 475.067 1204 481.333Z" fill="#575555"></path> <path d="M964 520.667V577.333H973.333H982.667V554V530.667H1001.07C1029.6 530.667 1032.8 533.333 1035.2 558.267C1036 566.933 1037.2 574.8 1037.73 575.733C1038.4 576.8 1042.27 577.333 1048.93 577.333C1058 577.333 1058.8 577.067 1058 574.933C1056 570 1054.8 564.267 1054 554C1052.4 534.933 1049.73 528.8 1041.07 525.2L1037.07 523.6L1040.8 521.6C1050.8 516.533 1055.2 508.533 1055.2 495.333C1055.2 483.333 1051.6 476.133 1043.2 470.667C1034.13 464.933 1026.93 464 994 464H964V520.667ZM1024.13 481.333C1026.67 482.133 1030.27 484.267 1032.13 486.133C1034.8 489.067 1035.33 490.933 1035.33 498.267C1035.33 506.533 1035.07 507.2 1030.93 510.667C1025.2 515.467 1022 516 1000.53 516H982.667V498V480H1001.07C1011.07 480 1021.47 480.667 1024.13 481.333Z" fill="#575555"></path> <path d="M1325.6 507.6L1326 551.333L1329.73 558.933C1337.07 573.867 1347.73 579.067 1370.67 579.2C1394.53 579.333 1405.47 574.133 1412.93 558.933L1416.67 551.333L1417.07 507.6L1417.47 464H1408.13H1398.67V501.333C1398.67 542.8 1397.73 549.867 1391.73 556.8C1383.07 566.667 1360.67 566.533 1351.07 556.533C1344.8 549.867 1344 543.333 1344 501.333V464H1334.53H1325.2L1325.6 507.6Z" fill="#575555"></path> <path d="M1505.33 520.533V577.333H1515.33H1525.33L1525.6 555.6L1526 534L1548.67 533.333C1573.2 532.667 1577.47 531.6 1584.8 524.267C1591.73 517.2 1594 511.067 1594 498.667C1594 482 1589.2 474.134 1575.33 467.734C1569.07 464.8 1566.67 464.667 1537.07 464.267L1505.33 463.734V520.533ZM1566.27 483.067C1572.53 486.4 1575.2 491.2 1575.2 499.334C1575.2 507.467 1572.53 512.267 1566.27 515.6C1562.93 517.333 1558.27 517.867 1544 517.867L1526 518L1525.6 498.8L1525.2 479.734L1543.6 480.267C1557.6 480.667 1563.07 481.334 1566.27 483.067Z" fill="#575555"></path> <path d="M372.8 530.4C371.2 533.067 341.467 552.133 328.133 559.2L314.133 566.4L328.8 576C336.8 581.2 350.133 588.8 358.267 592.933L373.333 600.267L388.8 592.533C403.6 585.2 432 567.467 432 565.6C432 565.067 426.133 561.733 418.933 558C408.4 552.667 389.067 540.4 376 530.933C374.533 529.867 373.333 529.733 372.8 530.4Z" fill="#575555"></path> </svg> 