<svg width="142" height="16" viewBox="0 0 142 16" fill="none" xmlns="http://www.w3.org/2000/svg">
<path d="M0.7 7.8C0.7 6.93333 0.853333 6.08667 1.16 5.26C1.46667 4.42 1.91333 3.66 2.5 2.98C3.1 2.28667 3.82667 1.74 4.68 1.34C5.53333 0.926666 6.5 0.719999 7.58 0.719999C8.86 0.719999 9.96667 1.01333 10.9 1.6C11.8333 2.17333 12.5267 2.91333 12.98 3.82L11.22 5C10.9533 4.42667 10.6133 3.97333 10.2 3.64C9.8 3.30667 9.36 3.07333 8.88 2.94C8.41333 2.80667 7.95333 2.74 7.5 2.74C6.75333 2.74 6.1 2.89333 5.54 3.2C4.98 3.49333 4.50667 3.88667 4.12 4.38C3.74667 4.87333 3.46 5.42667 3.26 6.04C3.07333 6.65333 2.98 7.26667 2.98 7.88C2.98 8.56 3.09333 9.22 3.32 9.86C3.54667 10.4867 3.86 11.0467 4.26 11.54C4.67333 12.02 5.16 12.4 5.72 12.68C6.28 12.96 6.89333 13.1 7.56 13.1C8.01333 13.1 8.48667 13.02 8.98 12.86C9.47333 12.7 9.92667 12.4533 10.34 12.12C10.7667 11.7733 11.1 11.32 11.34 10.76L13.2 11.82C12.9067 12.5267 12.4467 13.1267 11.82 13.62C11.2067 14.1133 10.5133 14.4867 9.74 14.74C8.98 14.9933 8.22667 15.12 7.48 15.12C6.48 15.12 5.56667 14.9133 4.74 14.5C3.91333 14.0733 3.2 13.5133 2.6 12.82C2 12.1133 1.53333 11.3267 1.2 10.46C0.866667 9.58 0.7 8.69333 0.7 7.8ZM14.7919 15V4.56H16.9919V12.06L22.2919 4.54H24.2919V15H22.0919V7.66L16.8519 15H14.7919ZM31.7808 15.2C30.0341 15.2 28.7074 14.6733 27.8008 13.62C26.8941 12.5667 26.4408 11.06 26.4408 9.1C26.4408 7.82 26.5474 6.74 26.7608 5.86C26.9874 4.96667 27.3141 4.23333 27.7408 3.66C28.1808 3.08667 28.7208 2.62 29.3608 2.26C30.0141 1.88667 30.7674 1.58667 31.6208 1.36L36.0808 0.12L36.1608 1.96L31.7808 3.2C31.0874 3.41333 30.4941 3.69333 30.0008 4.04C29.5208 4.38667 29.1408 4.84 28.8608 5.4C28.5808 5.94667 28.3941 6.64 28.3008 7.48C28.6741 6.8 29.2074 6.26667 29.9008 5.88C30.5941 5.49333 31.4141 5.3 32.3608 5.3C33.3341 5.3 34.1741 5.50667 34.8808 5.92C35.5874 6.32 36.1341 6.88 36.5208 7.6C36.9074 8.32 37.1008 9.14667 37.1008 10.08C37.1008 11.0933 36.8941 11.9867 36.4808 12.76C36.0808 13.52 35.4808 14.12 34.6808 14.56C33.8941 14.9867 32.9274 15.2 31.7808 15.2ZM31.7808 13.32C32.7541 13.32 33.5074 13.0333 34.0408 12.46C34.5874 11.8867 34.8608 11.1267 34.8608 10.18C34.8608 9.27333 34.5874 8.53333 34.0408 7.96C33.5074 7.37333 32.7541 7.08 31.7808 7.08C31.2074 7.08 30.6874 7.20667 30.2208 7.46C29.7541 7.7 29.3874 8.05333 29.1208 8.52C28.8541 8.97333 28.7208 9.52667 28.7208 10.18C28.7208 10.7933 28.8408 11.34 29.0808 11.82C29.3208 12.2867 29.6674 12.6533 30.1208 12.92C30.5741 13.1867 31.1274 13.32 31.7808 13.32ZM38.0441 15.1V13.14C38.3774 13.14 38.6774 13.06 38.9441 12.9C39.2107 12.7267 39.4441 12.4467 39.6441 12.06C39.8441 11.66 40.0041 11.1067 40.1241 10.4C40.2441 9.69333 40.3241 8.79333 40.3641 7.7L40.5041 4.54H47.9641V15H45.7641V6.48H42.4441L42.4041 7.9C42.3507 9.3 42.2241 10.4667 42.0241 11.4C41.8241 12.32 41.5441 13.0533 41.1841 13.6C40.8374 14.1333 40.3974 14.52 39.8641 14.76C39.3441 14.9867 38.7374 15.1 38.0441 15.1ZM55.1428 15.2C54.3295 15.2 53.5895 15.06 52.9228 14.78C52.2695 14.4867 51.7028 14.0933 51.2228 13.6C50.7428 13.0933 50.3695 12.52 50.1028 11.88C49.8495 11.2267 49.7228 10.5333 49.7228 9.8C49.7228 8.81333 49.9495 7.91333 50.4028 7.1C50.8561 6.27333 51.4895 5.61333 52.3028 5.12C53.1161 4.61333 54.0695 4.36 55.1628 4.36C56.2561 4.36 57.1961 4.61333 57.9828 5.12C58.7828 5.61333 59.4028 6.26667 59.8428 7.08C60.2828 7.89333 60.5028 8.76667 60.5028 9.7C60.5028 9.86 60.4961 10.0133 60.4828 10.16C60.4695 10.2933 60.4561 10.4067 60.4428 10.5H52.0628C52.1028 11.1133 52.2695 11.6533 52.5628 12.12C52.8695 12.5733 53.2561 12.9333 53.7228 13.2C54.1895 13.4533 54.6895 13.58 55.2228 13.58C55.8095 13.58 56.3628 13.4333 56.8828 13.14C57.4161 12.8467 57.7761 12.46 57.9628 11.98L59.8428 12.52C59.6161 13.0267 59.2695 13.4867 58.8028 13.9C58.3495 14.3 57.8095 14.62 57.1828 14.86C56.5561 15.0867 55.8761 15.2 55.1428 15.2ZM52.0028 9.04H58.3228C58.2828 8.44 58.1095 7.91333 57.8028 7.46C57.5095 6.99333 57.1295 6.63333 56.6628 6.38C56.2095 6.11333 55.7028 5.98 55.1428 5.98C54.5961 5.98 54.0895 6.11333 53.6228 6.38C53.1695 6.63333 52.7961 6.99333 52.5028 7.46C52.2095 7.91333 52.0428 8.44 52.0028 9.04ZM66.8373 15.2C66.024 15.2 65.284 15.06 64.6173 14.78C63.964 14.4867 63.3973 14.0867 62.9173 13.58C62.4373 13.0733 62.064 12.4933 61.7973 11.84C61.544 11.1867 61.4173 10.4933 61.4173 9.76C61.4173 8.77333 61.6373 7.87333 62.0773 7.06C62.5307 6.24667 63.1573 5.59333 63.9573 5.1C64.7707 4.60667 65.7307 4.36 66.8373 4.36C67.904 4.36 68.8307 4.6 69.6173 5.08C70.4173 5.54667 71.004 6.17333 71.3773 6.96L69.2373 7.64C68.9973 7.2 68.6573 6.86 68.2173 6.62C67.7907 6.36667 67.3173 6.24 66.7973 6.24C66.2107 6.24 65.6773 6.39333 65.1973 6.7C64.7307 6.99333 64.3573 7.40667 64.0773 7.94C63.8107 8.46 63.6773 9.06667 63.6773 9.76C63.6773 10.4267 63.8173 11.0333 64.0973 11.58C64.3773 12.1133 64.7507 12.54 65.2173 12.86C65.6973 13.1667 66.2307 13.32 66.8173 13.32C67.1773 13.32 67.524 13.26 67.8573 13.14C68.204 13.0067 68.504 12.8333 68.7573 12.62C69.0107 12.3933 69.1907 12.1467 69.2973 11.88L71.4573 12.52C71.2307 13.04 70.8907 13.5 70.4373 13.9C69.9973 14.3 69.4707 14.62 68.8573 14.86C68.2573 15.0867 67.584 15.2 66.8373 15.2ZM73.0692 15V4.54H75.2492V8.68H76.2892L79.3692 4.54H81.8092L77.9892 9.6L82.2492 15H79.7092L76.2692 10.66H75.2492V15H73.0692ZM87.8817 15.2C87.0551 15.2 86.3151 15.06 85.6617 14.78C85.0084 14.4867 84.4417 14.0867 83.9617 13.58C83.4951 13.0733 83.1351 12.5 82.8817 11.86C82.6284 11.2067 82.5017 10.5133 82.5017 9.78C82.5017 9.04667 82.6284 8.35333 82.8817 7.7C83.1351 7.04667 83.4951 6.47333 83.9617 5.98C84.4417 5.47333 85.0084 5.08 85.6617 4.8C86.3284 4.50667 87.0684 4.36 87.8817 4.36C88.6951 4.36 89.4284 4.50667 90.0817 4.8C90.7484 5.08 91.3151 5.47333 91.7817 5.98C92.2617 6.47333 92.6284 7.04667 92.8817 7.7C93.1351 8.35333 93.2617 9.04667 93.2617 9.78C93.2617 10.5133 93.1351 11.2067 92.8817 11.86C92.6284 12.5 92.2617 13.0733 91.7817 13.58C91.3151 14.0867 90.7484 14.4867 90.0817 14.78C89.4284 15.06 88.6951 15.2 87.8817 15.2ZM84.7617 9.8C84.7617 10.4667 84.9017 11.0667 85.1817 11.6C85.4617 12.1333 85.8351 12.5533 86.3017 12.86C86.7684 13.1667 87.2951 13.32 87.8817 13.32C88.4551 13.32 88.9751 13.1667 89.4417 12.86C89.9217 12.54 90.3017 12.1133 90.5817 11.58C90.8617 11.0333 91.0017 10.4333 91.0017 9.78C91.0017 9.11333 90.8617 8.51333 90.5817 7.98C90.3017 7.44667 89.9217 7.02667 89.4417 6.72C88.9751 6.4 88.4551 6.24 87.8817 6.24C87.2951 6.24 86.7684 6.4 86.3017 6.72C85.8351 7.04 85.4617 7.46667 85.1817 8C84.9017 8.52 84.7617 9.12 84.7617 9.8ZM111.974 15V4.88L107.794 12.56H106.474L102.274 4.88V15H100.034V0.799999H102.434L107.134 9.48L111.834 0.799999H114.234V15H111.974ZM117.257 15V0.799999H119.497V6.74H121.157L125.617 0.799999H128.177L122.957 7.68L128.557 15H125.817L121.157 8.8H119.497V15H117.257ZM141.576 11.34C141.576 12.1 141.376 12.7533 140.976 13.3C140.589 13.8467 140.062 14.2667 139.396 14.56C138.729 14.8533 137.996 15 137.196 15H130.416V0.799999H137.736C138.402 0.799999 138.976 0.979999 139.456 1.34C139.949 1.68667 140.322 2.14 140.576 2.7C140.842 3.24667 140.976 3.82 140.976 4.42C140.976 5.11333 140.796 5.76667 140.436 6.38C140.089 6.98 139.589 7.42667 138.936 7.72C139.749 7.96 140.389 8.4 140.856 9.04C141.336 9.66667 141.576 10.4333 141.576 11.34ZM139.276 10.92C139.276 10.52 139.189 10.16 139.016 9.84C138.856 9.50667 138.629 9.24 138.336 9.04C138.056 8.82667 137.722 8.72 137.336 8.72H132.656V13.06H137.196C137.596 13.06 137.949 12.9667 138.256 12.78C138.576 12.58 138.822 12.32 138.996 12C139.182 11.6667 139.276 11.3067 139.276 10.92ZM132.656 2.74V6.92H136.776C137.149 6.92 137.482 6.83333 137.776 6.66C138.069 6.47333 138.302 6.22667 138.476 5.92C138.649 5.6 138.736 5.24 138.736 4.84C138.736 4.42667 138.656 4.06667 138.496 3.76C138.336 3.44 138.116 3.19333 137.836 3.02C137.569 2.83333 137.256 2.74 136.896 2.74H132.656Z" fill="#1D2C4D"/>
</svg>
